# xmcd
#
# Track frame offsets: 
#        150
#        15640
#        30115
#        41757
#        54347
#        68600
#
# Disc length: 1090 seconds
#
# Revision: 0
# Processed by: cddbd v1.5.2PL0 Copyright (c) Steve Scherf et al.
# Submitted via: ExactAudioCopy v0.99pb3
#
DISCID=3c044006
DTITLE=NeverShoutNever! - The Yippee EP
DYEAR=2008
DGENRE=Pop Punk
TTITLE0=HereGoesNothin'
TTITLE1=BigCityDreams
TTITLE2=SmelYaLata
TTITLE3=Dare4Distance
TTITLE4=UrAlTalk
TTITLE5=OverTheYears (Demo)
EXTD=
EXTT0=
EXTT1=
EXTT2=
EXTT3=
EXTT4=
EXTT5=
PLAYORDER=
